0
SECTION
2
HEADER
9
$INSUNITS
70
4
9
$ACADVER
1
AC1014
9
$HANDSEED
5
FFFF
0
ENDSEC
0
SECTION
2
TABLES
0
TABLE
2
VPORT
5
8
100
AcDbSymbolTable
0
ENDTAB
0
TABLE
2
LTYPE
5
5
100
AcDbSymbolTable
0
LTYPE
5
14
100
AcDbSymbolTableRecord
100
AcDbLinetypeTableRecord
2
BYBLOCK
70
0
0
LTYPE
5
15
100
AcDbSymbolTableRecord
100
AcDbLinetypeTableRecord
2
BYLAYER
70
0
0
LTYPE
5
16
100
AcDbSymbolTableRecord
100
AcDbLinetypeTableRecord
2
DASHED
70
0
3
Dashed __ __ __ __ __ __ __ __ __ __ __ __ __ _
72
65
73
2
40
0.75
49
0.5
74
0
49
-0.25
74
0
0
ENDTAB
0
TABLE
2
LAYER
5
2
100
AcDbSymbolTable
70
3
0
LAYER
5
50
100
AcDbSymbolTableRecord
100
AcDbLayerTableRecord
2
1
70
0
62
7
6
DASHED
0
LAYER
5
51
100
AcDbSymbolTableRecord
100
AcDbLayerTableRecord
2
0
70
0
62
7
6
CONTINUOUS
0
ENDTAB
0
TABLE
2
STYLE
5
3
100
AcDbSymbolTable
70
1
0
STYLE
5
11
100
AcDbSymbolTableRecord
100
AcDbTextStyleTableRecord
2
STANDARD
70
0
0
ENDTAB
0
TABLE
2
VIEW
5
6
100
AcDbSymbolTable
70
0
0
ENDTAB
0
TABLE
2
UCS
5
7
100
AcDbSymbolTable
70
0
0
ENDTAB
0
TABLE
2
APPID
5
9
100
AcDbSymbolTable
70
2
0
APPID
5
12
100
AcDbSymbolTableRecord
100
AcDbRegAppTableRecord
2
ACAD
70
0
0
ENDTAB
0
TABLE
2
DIMSTYLE
5
A
100
AcDbSymbolTable
70
1
0
ENDTAB
0
TABLE
2
BLOCK_RECORD
5
1
100
AcDbSymbolTable
70
1
0
BLOCK_RECORD
5
1F
100
AcDbSymbolTableRecord
100
AcDbBlockTableRecord
2
*MODEL_SPACE
0
BLOCK_RECORD
5
1B
100
AcDbSymbolTableRecord
100
AcDbBlockTableRecord
2
*PAPER_SPACE
0
ENDTAB
0
ENDSEC
0
SECTION
2
BLOCKS
0
BLOCK
5
20
100
AcDbEntity
100
AcDbBlockBegin
2
*MODEL_SPACE
0
ENDBLK
5
21
100
AcDbEntity
100
AcDbBlockEnd
0
BLOCK
5
1C
100
AcDbEntity
100
AcDbBlockBegin
2
*PAPER_SPACE
0
ENDBLK
5
1D
100
AcDbEntity
100
AcDbBlockEnd
0
ENDSEC
0
SECTION
2
ENTITIES
0
POINT
5
100
100
AcDbEntity
8
0
100
AcDbPoint
10
-6.3061565846156062
20
11.160001342288179
30
1.9061936419874214e-16
0
POINT
5
101
100
AcDbEntity
8
0
100
AcDbPoint
10
-6.3061565846158061
20
6.5600013422881798
30
1.9061936419874214e-16
0
POINT
5
102
100
AcDbEntity
8
0
100
AcDbPoint
10
9.6938434153841921
20
6.5600013422882952
30
1.9061936419874214e-16
0
LWPOLYLINE
5
103
100
AcDbEntity
8
0
100
AcDbPolyline
90
16
70
1
43
0.0
10
-58.651627834820005
20
33.584853110000012
42
0.19891236957170746
10
-59.237414274816004
20
32.170639550000011
10
-59.237414274820004
20
7.8389500899999875
42
0.19891236737965839
10
-58.651627837193097
20
6.42473652762689
10
-54.823200704820003
20
2.5963093999999809
42
0.19891236957151939
10
-53.40898714482001
20
2.010522960003978
10
38.934158605179995
20
2.0105229599999808
42
0.19891236737993295
10
40.348372167554594
20
2.5963093976283869
10
44.176799295180004
20
6.4247365299999863
42
0.19891236403363577
10
44.762585725179996
20
7.8389500899999875
10
44.762585725179996
20
32.170639550000011
42
0.19891236647247698
10
44.176799292489612
20
33.584853107436608
10
40.348372165180137
20
37.413280240000155
42
0.19891236957207759
10
38.934158605180002
20
37.999066680000027
10
-53.408987144820003
20
37.999066680000027
42
0.19891236737938811
10
-54.823200707191603
20
37.413280242374626
0
LWPOLYLINE
5
104
100
AcDbEntity
8
0
100
AcDbPolyline
90
16
70
1
43
0.0
10
40.348372167554594
20
2.5963093976283869
10
44.176799295180004
20
6.4247365299999863
42
0.19891236403364052
10
44.762585725179996
20
7.8389500899999875
10
44.762585725179996
20
32.170639550000011
42
0.19891236647247051
10
44.176799292489612
20
33.584853107436608
10
40.348372165180137
20
37.413280240000155
42
0.19891236957207512
10
38.934158605180002
20
37.999066680000027
10
-53.408987144820003
20
37.999066680000027
42
0.19891236737938042
10
-54.823200707191603
20
37.413280242374626
10
-58.651627834820005
20
33.584853110000012
42
0.19891236957171055
10
-59.237414274816004
20
32.170639550000011
10
-59.237414274820004
20
7.8389500899999875
42
0.19891236737965262
10
-58.651627837193097
20
6.42473652762689
10
-54.823200704820003
20
2.5963093999999809
42
0.19891236957151637
10
-53.40898714482001
20
2.010522960003978
10
38.934158605179995
20
2.0105229599999808
42
0.19891236737993429
0
CIRCLE
5
105
100
AcDbEntity
8
0
100
AcDbCircle
10
-54.537414274820009
20
8.0605229599999877
30
0
40
1.6000000000000003
210
0
220
0
230
1
0
CIRCLE
5
106
100
AcDbEntity
8
0
100
AcDbCircle
10
40.06258572518
20
8.0605229599999877
30
0
40
1.6000000000000003
210
0
220
0
230
1
0
CIRCLE
5
107
100
AcDbEntity
8
0
100
AcDbCircle
10
-54.537414274820009
20
31.949066680000016
30
0
40
1.6000000000000003
210
0
220
0
230
1
0
CIRCLE
5
108
100
AcDbEntity
8
0
100
AcDbCircle
10
40.06258572518
20
31.949066680000016
30
0
40
1.6000000000000003
210
0
220
0
230
1
0
LWPOLYLINE
5
109
100
AcDbEntity
8
0
100
AcDbPolyline
90
8
70
1
43
0.0
10
-29.993122589551007
20
12.57615698492901
10
-23.053122673329
20
12.576156984929066
42
0.41421356237309503
10
-21.883122685039062
20
13.746156973219009
10
-21.883122685039002
20
14.946156958733008
42
0.41421356237309503
10
-23.053122673329
20
16.116156947023008
10
-29.993122589551028
20
16.116156947023008
42
0.41421356237310175
10
-31.163122577841005
20
14.946156958733008
10
-31.163122577841005
20
13.746156973219009
42
0.41421356237309503
0
LWPOLYLINE
5
110
100
AcDbEntity
8
0
100
AcDbPolyline
90
8
70
1
43
0.0
10
-13.203689010681003
20
12.576156984929007
10
-6.2636890944589982
20
12.576156984929066
42
0.41421356237309453
10
-5.0936891061690606
20
13.746156973219009
10
-5.0936891061690002
20
14.946156958733008
42
0.41421356237309503
10
-6.2636890944590009
20
16.116156947023008
10
-13.20368901068103
20
16.116156947023008
42
0.41421356237308837
10
-14.373688998971003
20
14.946156958733008
10
-14.373688998971001
20
13.746156973219009
42
0.41421356237309503
0
LWPOLYLINE
5
111
100
AcDbEntity
8
0
100
AcDbPolyline
90
8
70
1
43
0.0
10
-47.952157375911
20
13.746156973219009
42
0.41421356237309453
10
-46.782157387621012
20
12.576156984929003
10
-39.842157471399005
20
12.576156984929066
42
0.4142135623730967
10
-38.672157483109054
20
13.746156973219009
10
-38.672157483109004
20
14.946156958733008
42
0.41421356237309559
10
-39.842157471399005
20
16.116156947023008
10
-46.782157387621041
20
16.116156947023008
42
0.41421356237308615
10
-47.952157375911
20
14.946156958733008
0
LWPOLYLINE
5
112
100
AcDbEntity
8
0
100
AcDbPolyline
90
8
70
1
43
0.0
10
-27.733122616833001
20
8.9284121429050032
10
-25.313122646047006
20
8.9284121429050032
42
0.41421356237309503
10
-24.523122649548004
20
9.7184121394040055
10
-24.523122649548007
20
10.488412130109005
42
0.41421356237309503
10
-25.313122646047006
20
11.278412126608002
10
-27.733122616833001
20
11.278412126608009
42
0.41421356237309503
10
-28.523122613331999
20
10.488412130109005
10
-28.523122613331999
20
9.7184121394040055
42
0.41421356237309503
0
LWPOLYLINE
5
113
100
AcDbEntity
8
0
100
AcDbPolyline
90
8
70
1
43
0.0
10
-44.52255619570299
20
8.9284121429049979
10
-42.102556224917002
20
8.9284121429050032
42
0.41421356237309503
10
-41.312556228417996
20
9.7184121394040055
10
-41.312556228418003
20
10.488412130109007
42
0.41421356237309748
10
-42.102556224917009
20
11.278412126607996
10
-44.52255619570299
20
11.278412126608009
42
0.41421356237309503
10
-45.312556192201995
20
10.488412130109005
10
-45.312556192201995
20
9.7184121394040055
42
0.41421356237309503
0
LWPOLYLINE
5
114
100
AcDbEntity
8
0
100
AcDbPolyline
90
8
70
1
43
0.0
10
-11.733689034462
20
10.488412130109005
10
-11.733689034462
20
9.7184121394040055
42
0.41421356237309587
10
-10.943689037963001
20
8.9284121429050032
10
-8.5236890671770009
20
8.9284121429050032
42
0.41421356237309465
10
-7.7336890706779995
20
9.7184121394040055
10
-7.7336890706779995
20
10.488412130109005
42
0.41421356237309304
10
-8.5236890671770009
20
11.278412126608007
10
-10.943689037963001
20
11.278412126608009
42
0.4142135623730967
0
LWPOLYLINE
5
115
100
AcDbEntity
8
0
100
AcDbPolyline
90
8
70
1
43
0.0
10
-50.597090119379985
20
26.399999904633003
10
-38.49709011937999
20
26.399999904633003
42
-0.41421356237309176
10
-37.69709011938
20
25.599999904633002
10
-37.69709011938
20
20.89999990463301
42
-0.41421356237309342
10
-38.49709011937999
20
20.099999904633009
10
-50.597090119379985
20
20.099999904632998
42
-0.41421356237309825
10
-51.397090119379989
20
20.89999990463301
10
-51.397090119379989
20
25.599999904633002
42
-0.41421356237309992
0
LWPOLYLINE
5
116
100
AcDbEntity
8
0
100
AcDbPolyline
90
8
70
1
43
0.0
10
-0.91756256032499461
20
25.599999904633002
42
0.4142135623730952
10
-1.7175625603249944
20
26.399999904633003
10
-13.817562560324994
20
26.399999904633003
42
0.41421356237309503
10
-14.617562560324991
20
25.599999904633002
10
-14.617562560324995
20
20.89999990463301
42
0.41421356237309503
10
-13.817562560324994
20
20.099999904633009
10
-1.7175625603249933
20
20.099999904633009
42
0.41421356237309515
10
-0.91756256032499683
20
20.89999990463301
0
LWPOLYLINE
5
117
100
AcDbEntity
8
0
100
AcDbPolyline
90
8
70
1
43
0.0
10
33.448847154186979
20
10.828625994733553
10
11.649201467484973
20
10.82862599473356
42
-0.4142135623730957
10
10.649201467484975
20
11.828625994733562
10
10.649201467484971
20
33.628271681438612
42
-0.4142135623730937
10
11.649201467484968
20
34.628271681438612
10
33.448847154186971
20
34.628271681438612
42
-0.4142135623730937
10
34.448847154186979
20
33.628271681438612
10
34.448847154186979
20
11.828625994733555
42
-0.41421356237309243
0
LWPOLYLINE
5
118
100
AcDbEntity
8
0
100
AcDbPolyline
90
9
70
1
43
0.0
10
9.6938434153841921
20
7.0600013422882899
10
9.6938434153841921
20
10.660001342288044
42
0.41421356237309437
10
9.1938434153841886
20
11.160001342288044
10
1.693843415384394
20
11.160001342288004
10
-5.8061565846156169
20
11.160001342288169
42
0.41421356237308526
10
-6.3061565846156284
20
10.660001342288188
10
-6.3061565846157839
20
7.0600013422882046
42
0.41421356237311063
10
-5.8061565846157812
20
6.5600013422881842
10
9.1938434153841939
20
6.5600013422882908
42
0.41421356237309309
0
ENDSEC
0
SECTION
2
OBJECTS
0
DICTIONARY
5
C
100
AcDbDictionary
3
ACAD_GROUP
350
D
3
ACAD_MLINESTYLE
350
17
0
DICTIONARY
5
D
100
AcDbDictionary
0
DICTIONARY
5
1A
330
C
100
AcDbDictionary
0
DICTIONARY
5
17
100
AcDbDictionary
0
ENDSEC
0
EOF
