0
SECTION
2
HEADER
9
$INSUNITS
70
4
9
$ACADVER
1
AC1014
9
$HANDSEED
5
FFFF
0
ENDSEC
0
SECTION
2
TABLES
0
TABLE
2
VPORT
5
8
100
AcDbSymbolTable
0
ENDTAB
0
TABLE
2
LTYPE
5
5
100
AcDbSymbolTable
0
LTYPE
5
14
100
AcDbSymbolTableRecord
100
AcDbLinetypeTableRecord
2
BYBLOCK
70
0
0
LTYPE
5
15
100
AcDbSymbolTableRecord
100
AcDbLinetypeTableRecord
2
BYLAYER
70
0
0
LTYPE
5
16
100
AcDbSymbolTableRecord
100
AcDbLinetypeTableRecord
2
DASHED
70
0
3
Dashed __ __ __ __ __ __ __ __ __ __ __ __ __ _
72
65
73
2
40
0.75
49
0.5
74
0
49
-0.25
74
0
0
ENDTAB
0
TABLE
2
LAYER
5
2
100
AcDbSymbolTable
70
3
0
LAYER
5
50
100
AcDbSymbolTableRecord
100
AcDbLayerTableRecord
2
1
70
0
62
7
6
DASHED
0
LAYER
5
51
100
AcDbSymbolTableRecord
100
AcDbLayerTableRecord
2
0
70
0
62
7
6
CONTINUOUS
0
ENDTAB
0
TABLE
2
STYLE
5
3
100
AcDbSymbolTable
70
1
0
STYLE
5
11
100
AcDbSymbolTableRecord
100
AcDbTextStyleTableRecord
2
STANDARD
70
0
0
ENDTAB
0
TABLE
2
VIEW
5
6
100
AcDbSymbolTable
70
0
0
ENDTAB
0
TABLE
2
UCS
5
7
100
AcDbSymbolTable
70
0
0
ENDTAB
0
TABLE
2
APPID
5
9
100
AcDbSymbolTable
70
2
0
APPID
5
12
100
AcDbSymbolTableRecord
100
AcDbRegAppTableRecord
2
ACAD
70
0
0
ENDTAB
0
TABLE
2
DIMSTYLE
5
A
100
AcDbSymbolTable
70
1
0
ENDTAB
0
TABLE
2
BLOCK_RECORD
5
1
100
AcDbSymbolTable
70
1
0
BLOCK_RECORD
5
1F
100
AcDbSymbolTableRecord
100
AcDbBlockTableRecord
2
*MODEL_SPACE
0
BLOCK_RECORD
5
1B
100
AcDbSymbolTableRecord
100
AcDbBlockTableRecord
2
*PAPER_SPACE
0
ENDTAB
0
ENDSEC
0
SECTION
2
BLOCKS
0
BLOCK
5
20
100
AcDbEntity
100
AcDbBlockBegin
2
*MODEL_SPACE
0
ENDBLK
5
21
100
AcDbEntity
100
AcDbBlockEnd
0
BLOCK
5
1C
100
AcDbEntity
100
AcDbBlockBegin
2
*PAPER_SPACE
0
ENDBLK
5
1D
100
AcDbEntity
100
AcDbBlockEnd
0
ENDSEC
0
SECTION
2
ENTITIES
0
POINT
5
100
100
AcDbEntity
8
0
100
AcDbPoint
10
25.064686448930004
20
12.786157067681001
30
0
0
LWPOLYLINE
5
101
100
AcDbEntity
8
0
100
AcDbPolyline
90
16
70
1
43
0.0
10
58.651627842129599
20
33.584853107436608
10
54.823200714817631
20
37.41328023999764
42
0.19891236957188607
10
53.408987154820011
20
37.999066680000027
10
-38.934158595180001
20
37.999066680000027
42
0.19891236737965473
10
-40.348372157553094
20
37.413280242373133
10
-44.17679928518001
20
33.584853110000026
42
0.19891236957207364
10
-44.762585725179996
20
32.170639550000026
10
-44.762585725179996
20
7.8389500899999964
42
0.19891236737938656
10
-44.176799287554608
20
6.424736527628399
10
-40.348372155180002
20
2.5963093999999898
42
0.19891236957170996
10
-38.934158595180001
20
2.0105229600039887
10
53.408987154819997
20
2.0105229599999741
42
0.19891236737965348
10
54.82320071719311
20
2.5963093976268734
10
58.651627844820013
20
6.4247365299999784
42
0.19891236403291226
10
59.237414274812004
20
7.8389500899999787
10
59.237414274820004
20
32.170639550000011
42
0.19891236647247509
0
LWPOLYLINE
5
102
100
AcDbEntity
8
0
100
AcDbPolyline
90
16
70
1
43
0.0
10
-44.17679928518001
20
33.584853110000026
42
0.19891236957207606
10
-44.762585725179996
20
32.170639550000026
10
-44.762585725179996
20
7.8389500899999964
42
0.1989123673793799
10
-44.176799287554608
20
6.424736527628399
10
-40.348372155180002
20
2.5963093999999898
42
0.19891236957170952
10
-38.934158595180001
20
2.0105229600039887
10
53.408987154819997
20
2.0105229599999741
42
0.19891236737966386
10
54.82320071719311
20
2.5963093976268734
10
58.651627844820013
20
6.4247365299999784
42
0.19891236403290277
10
59.237414274812004
20
7.8389500899999787
10
59.237414274820004
20
32.170639550000011
42
0.1989123664724772
10
58.651627842129599
20
33.584853107436608
10
54.823200714817631
20
37.41328023999764
42
0.19891236957189112
10
53.408987154820011
20
37.999066680000027
10
-38.934158595180001
20
37.999066680000027
42
0.19891236737966145
10
-40.348372157553094
20
37.413280242373133
0
CIRCLE
5
103
100
AcDbEntity
8
0
100
AcDbCircle
10
-40.06258572518
20
8.0605229599999966
30
0
40
1.6000000000000003
210
0
220
0
230
1
0
CIRCLE
5
104
100
AcDbEntity
8
0
100
AcDbCircle
10
54.537414274820009
20
8.060522959999977
30
0
40
1.6000000000000003
210
0
220
0
230
1
0
CIRCLE
5
105
100
AcDbEntity
8
0
100
AcDbCircle
10
-40.06258572518
20
31.949066680000023
30
0
40
1.6000000000000003
210
0
220
0
230
1
0
CIRCLE
5
106
100
AcDbEntity
8
0
100
AcDbCircle
10
54.537414274820009
20
31.949066680000012
30
0
40
1.6000000000000003
210
0
220
0
230
1
0
LWPOLYLINE
5
107
100
AcDbEntity
8
0
100
AcDbPolyline
90
8
70
1
43
0.0
10
21.833778543933001
20
14.846156999129001
42
0.41421356237309337
10
20.683778536972994
20
15.996157006089003
10
13.743778486127001
20
15.996157006089007
42
0.4142135623730962
10
12.593778479166994
20
14.846156999129001
10
12.593778479167
20
13.68615699063
42
0.41421356237309453
10
13.743778486127001
20
12.536156983670001
10
20.683778536972998
20
12.536156983670175
42
0.4142135623730967
10
21.83377854393283
20
13.68615699063
0
LWPOLYLINE
5
108
100
AcDbEntity
8
0
100
AcDbPolyline
90
8
70
1
43
0.0
10
-37.207346668804007
20
12.516156984929001
10
-30.267346752582011
20
12.516156984929056
42
0.41421356237309503
10
-29.09734676429207
20
13.686156973218999
10
-29.097346764292013
20
14.886156958732998
42
0.41421356237309559
10
-30.267346752582011
20
16.056156947022998
10
-37.207346668804007
20
16.056156947024
42
0.41421356237309503
10
-38.377346657095011
20
14.886156958733
10
-38.377346657094009
20
13.686156973218999
42
0.41421356237309503
0
LWPOLYLINE
5
109
100
AcDbEntity
8
0
100
AcDbPolyline
90
8
70
1
43
0.0
10
-37.208406409724006
20
27.069999987385
42
0.41421356237309503
10
-38.378406398014008
20
25.899999999095002
10
-38.378406398014008
20
24.700000013581001
42
0.41421356237309392
10
-37.208406409724006
20
23.530000025291006
10
-30.268406493502042
20
23.530000025290004
42
0.41421356237310281
10
-29.09840650521101
20
24.700000013581004
10
-29.098406505212012
20
25.899999999095016
42
0.4142135623730917
10
-30.268406493502013
20
27.069999987385
0
LWPOLYLINE
5
110
100
AcDbEntity
8
0
100
AcDbPolyline
90
8
70
1
43
0.0
10
-24.707321268754011
20
12.516156984929001
10
-17.767321352532008
20
12.516156984929056
42
0.41421356237309503
10
-16.597321364242067
20
13.686156973218999
10
-16.597321364242006
20
14.886156958732998
42
0.41421356237309559
10
-17.767321352532008
20
16.056156947022998
10
-24.707321268754043
20
16.056156947023005
42
0.41421356237308732
10
-25.877321257044017
20
14.886156958733
10
-25.877321257044009
20
13.686156973218999
42
0.41421356237309503
0
LWPOLYLINE
5
111
100
AcDbEntity
8
0
100
AcDbPolyline
90
8
70
1
43
0.0
10
51.600094891790974
20
25.899999999095002
42
0.41421356237310175
10
50.430094903500951
20
27.069999987385
10
43.490094987278987
20
27.069999987385
42
0.41421356237309503
10
42.320094998988992
20
25.899999999095002
10
42.320094998988999
20
24.700000013581004
42
0.41421356237309503
10
43.490094987278987
20
23.530000025291006
10
50.430094903500958
20
23.530000025290004
42
0.41421356237309953
10
51.600094891791983
20
24.700000013581004
0
LWPOLYLINE
5
112
100
AcDbEntity
8
0
100
AcDbPolyline
90
8
70
1
43
0.0
10
37.940331887996038
20
12.486156909086974
10
52.840331561324014
20
12.486156909086967
42
0.41421356237310025
10
53.340331561323993
20
12.986156909086974
10
53.340331561323993
20
19.986156755235001
42
0.4142135623730937
10
52.340331578184013
20
20.986156738375001
10
38.44033187113601
20
20.986156738374003
42
0.41421356237309698
10
37.440331887997012
20
19.986156755235001
10
37.440331887996052
20
12.986156909087045
42
0.41421356237312884
0
CIRCLE
5
113
100
AcDbEntity
8
0
100
AcDbCircle
10
-33.735105735463492
20
10.050000006622501
30
-6.8422776578360196e-48
40
1.0000000000000009
210
0
220
0
230
1
0
CIRCLE
5
114
100
AcDbEntity
8
0
100
AcDbCircle
10
-21.238280741813508
20
10.050000006622501
30
0
40
0.99999999999999967
210
0
220
0
230
1
0
LWPOLYLINE
5
115
100
AcDbEntity
8
0
100
AcDbPolyline
90
4
70
1
43
0.0
10
5.7374142748200052
20
33.99906668000002
10
5.7374142748200025
20
30.999066680000023
42
0.99999999999999989
10
8.7374142748200079
20
30.999066680000031
10
8.7374142748200043
20
33.99906668000002
42
0.99999999999999989
0
LWPOLYLINE
5
116
100
AcDbEntity
8
0
100
AcDbPolyline
90
4
70
1
43
0.0
10
13.737414274820008
20
30.999066680000023
10
13.737414274820008
20
33.99906668000002
42
0.99999999999999989
10
10.737414274820004
20
33.999066680000013
10
10.737414274820004
20
30.999066680000023
42
0.99999999999999989
0
LWPOLYLINE
5
117
100
AcDbEntity
8
0
100
AcDbPolyline
90
4
70
1
43
0.0
10
23.737414274820011
20
30.999066680000009
42
-0.99999999999999989
10
20.737414274820004
20
30.999066680000027
10
20.737414274820004
20
33.99906668000002
42
-0.99999999999999989
10
23.737414274820004
20
33.99906668000002
0
LWPOLYLINE
5
118
100
AcDbEntity
8
0
100
AcDbPolyline
90
4
70
1
43
0.0
10
18.737414274820004
20
33.99906668000002
10
18.737414274820004
20
30.999066680000023
42
-0.99999999999999989
10
15.737414274820008
20
30.999066680000023
10
15.737414274820008
20
33.99906668000002
42
-0.99999999999999989
0
LWPOLYLINE
5
119
100
AcDbEntity
8
0
100
AcDbPolyline
90
4
70
1
43
0.0
10
0.73741427482000077
20
30.999066680000023
42
0.99999999999999989
10
3.7374142748200079
20
30.999066680000023
10
3.7374142748200034
20
33.99906668000002
42
0.99999999999999989
10
0.73741427482000521
20
33.999066680000013
0
LWPOLYLINE
5
120
100
AcDbEntity
8
0
100
AcDbPolyline
90
4
70
1
43
0.0
10
-1.2625857251799966
20
33.99906668000002
42
0.99999999999999989
10
-4.2625857251799948
20
33.999066680000013
10
-4.2625857251799992
20
30.999066680000023
42
0.99999999999999989
10
-1.2625857251799921
20
30.999066680000023
0
LWPOLYLINE
5
121
100
AcDbEntity
8
0
100
AcDbPolyline
90
4
70
1
43
0.0
10
-9.2625857251799992
20
30.999066680000023
10
-9.2625857251799975
20
33.99906668000002
42
-0.99999999999999989
10
-6.2625857251799966
20
33.99906668000002
10
-6.2625857251799921
20
30.999066680000009
42
-0.99999999999999989
0
LWPOLYLINE
5
122
100
AcDbEntity
8
0
100
AcDbPolyline
90
4
70
1
43
0.0
10
-14.262585725179996
20
30.999066680000023
42
0.99999999999999989
10
-11.262585725179992
20
30.999066680000031
10
-11.262585725179994
20
33.99906668000002
42
0.99999999999999989
10
-14.262585725179996
20
33.99906668000002
0
LWPOLYLINE
5
123
100
AcDbEntity
8
0
100
AcDbPolyline
90
4
70
1
43
0.0
10
13.737414274820008
20
18.49906668000002
42
-0.99999999999999989
10
10.737414274820004
20
18.49906668000002
10
10.737414274820004
20
22.99906668000002
42
-0.99999999999999989
10
13.737414274820008
20
22.999066680000027
0
LWPOLYLINE
5
124
100
AcDbEntity
8
0
100
AcDbPolyline
90
4
70
1
43
0.0
10
18.737414274820004
20
22.99906668000002
42
0.99999999999999989
10
15.737414274820008
20
22.99906668000002
10
15.737414274820008
20
18.500000275671479
42
0.99999999999999989
10
18.737414274820004
20
18.500000275671479
0
LWPOLYLINE
5
125
100
AcDbEntity
8
0
100
AcDbPolyline
90
4
70
1
43
0.0
10
23.737414274820004
20
18.500000275671479
10
23.737414274820004
20
22.99906668000002
42
0.99999999999999989
10
20.737414274820004
20
22.99906668000002
10
20.737414274820004
20
18.500000275671479
42
0.99999999999999989
0
LWPOLYLINE
5
126
100
AcDbEntity
8
0
100
AcDbPolyline
90
12
70
1
43
0.0
10
25.364686448930001
20
12.586157067681
10
25.664686448930002
20
12.586157067681
10
34.46468644893001
20
12.586157067681
10
34.76468644893
20
12.586157067681
42
0.41421356237309503
10
35.26468644893
20
13.086157067681
10
35.26468644893
20
13.286157067680993
10
35.26468644893
20
22.186157067680998
42
0.41421356237309503
10
34.164686448930013
20
23.286157067680993
10
25.764686448929996
20
23.286157067681007
42
0.41421356237309359
10
24.864686448930001
20
22.386157067681005
10
24.864686448930001
20
13.286157067681001
10
24.864686448930001
20
13.086157067681
42
0.41421356237309503
0
LWPOLYLINE
5
127
100
AcDbEntity
8
0
100
AcDbPolyline
90
4
70
1
43
0.0
10
-4.2625857251799948
20
22.99906668000002
10
-4.2625857251799975
20
18.49906668000002
42
0.99999999999999989
10
-1.2625857251799939
20
18.499066680000023
10
-1.2625857251799966
20
22.99906668000002
42
0.99999999999999989
0
LWPOLYLINE
5
128
100
AcDbEntity
8
0
100
AcDbPolyline
90
4
70
1
43
0.0
10
0.73741427482000299
20
18.500000275671479
10
0.73741427482000521
20
22.99906668000002
42
-0.99999999999999989
10
3.7374142748200034
20
22.99906668000002
10
3.7374142748200057
20
18.500000275671479
42
-0.99999999999999989
0
LWPOLYLINE
5
129
100
AcDbEntity
8
0
100
AcDbPolyline
90
4
70
1
43
0.0
10
8.7374142748200043
20
22.99906668000002
10
8.7374142748200043
20
18.500000275671479
42
-0.99999999999999989
10
5.7374142748200052
20
18.500000275671479
10
5.7374142748200052
20
22.99906668000002
42
-0.99999999999999989
0
LWPOLYLINE
5
130
100
AcDbEntity
8
0
100
AcDbPolyline
90
4
70
1
43
0.0
10
-11.262585725179994
20
22.99906668000002
42
0.99999999999999989
10
-14.262585725179992
20
22.999066680000027
10
-14.262585725179996
20
18.49906668000002
42
0.99999999999999989
10
-11.262585725179992
20
18.499066680000023
0
LWPOLYLINE
5
131
100
AcDbEntity
8
0
100
AcDbPolyline
90
4
70
1
43
0.0
10
-9.2625857251799975
20
18.500000275671479
42
0.99999999999999989
10
-6.2625857251799957
20
18.500000275671486
10
-6.2625857251799966
20
22.99906668000002
42
0.99999999999999989
10
-9.2625857251799975
20
22.999066680000027
0
ENDSEC
0
SECTION
2
OBJECTS
0
DICTIONARY
5
C
100
AcDbDictionary
3
ACAD_GROUP
350
D
3
ACAD_MLINESTYLE
350
17
0
DICTIONARY
5
D
100
AcDbDictionary
0
DICTIONARY
5
1A
330
C
100
AcDbDictionary
0
DICTIONARY
5
17
100
AcDbDictionary
0
ENDSEC
0
EOF
